<svg width="67" height="62" viewBox="0 0 67 62" fill="none" xmlns="http://www.w3.org/2000/svg">
<g clip-path="url(#clip0_1037_656)">
<path d="M33.49 30.9893C25.8291 38.0785 13.4069 38.0785 5.74699 30.9893C-1.91501 23.9001 -1.91501 12.4069 5.74699 5.31763" fill="url(#paint0_linear_1037_656)"/>
<path d="M5.74651 30.9893C-1.9155 23.9001 -1.9155 12.4069 5.74651 5.31763L5.74651 30.9893Z" fill="url(#paint1_linear_1037_656)"/>
<path d="M33.5105 31.0087C41.1725 23.9195 53.5936 23.9213 61.2546 31.0107C68.9145 38.0981 68.9155 49.5931 61.2546 56.6824" fill="url(#paint2_linear_1037_656)"/>
<path d="M61.2549 31.0107C68.9148 38.0981 68.9158 49.5931 61.2549 56.6824L61.2549 31.0107Z" fill="url(#paint3_linear_1037_656)"/>
</g>
<defs>
<linearGradient id="paint0_linear_1037_656" x1="-19.6866" y1="20.8137" x2="43.5818" y2="20.8137" gradientUnits="userSpaceOnUse">
<stop offset="0.012" stop-color="#E0B386"/>
<stop offset="0.65" stop-color="#DA498C"/>
<stop offset="1" stop-color="#961484"/>
</linearGradient>
<linearGradient id="paint1_linear_1037_656" x1="-3.29427" y1="7.81124" x2="22.1782" y2="42.1354" gradientUnits="userSpaceOnUse">
<stop offset="0.012" stop-color="#E0B386"/>
<stop offset="0.65" stop-color="#DA498C"/>
<stop offset="1" stop-color="#961484"/>
</linearGradient>
<linearGradient id="paint2_linear_1037_656" x1="82.9332" y1="42.4403" x2="-0.26416" y2="38.1577" gradientUnits="userSpaceOnUse">
<stop stop-color="#29D3DA"/>
<stop offset="0.519" stop-color="#0077FF"/>
<stop offset="0.999" stop-color="#064093"/>
<stop offset="1" stop-color="#084698"/>
</linearGradient>
<linearGradient id="paint3_linear_1037_656" x1="69.9837" y1="44.2315" x2="54.3285" y2="43.4286" gradientUnits="userSpaceOnUse">
<stop stop-color="#29D3DA"/>
<stop offset="0.519" stop-color="#0077FF"/>
<stop offset="0.999" stop-color="#064093"/>
<stop offset="1" stop-color="#084698"/>
</linearGradient>
<clipPath id="clip0_1037_656">
<rect width="67" height="62" fill="white"/>
</clipPath>
</defs>
</svg>
