<svg width="253" height="253" viewBox="0 0 253 253" fill="none" xmlns="http://www.w3.org/2000/svg">
<path fill-rule="evenodd" clip-rule="evenodd" d="M98.0021 49.8333V55.3798C69.647 67.0075 49.8368 105.199 50.5556 138.298L50.5554 156.682C36.0398 175.343 36.8939 203.166 73.1083 203.166H98.0021C98.0021 210.791 100.974 218.104 106.263 223.496C111.552 228.888 118.726 231.917 126.206 231.917C133.686 231.917 140.86 228.888 146.149 223.496C151.437 218.104 154.409 210.791 154.409 203.166H179.372C215.517 203.166 216.041 175.285 201.527 156.624L201.931 138.324C202.661 105.186 182.813 66.9601 154.409 55.349V49.8333C154.409 42.2083 151.437 34.8957 146.149 29.5041C140.86 24.1124 133.686 21.0834 126.206 21.0834C118.726 21.0834 111.552 24.1124 106.263 29.5041C100.974 34.8957 98.0021 42.2083 98.0021 49.8333ZM135.607 49.8333C135.607 49.8333 135.601 50.222 135.589 50.4151C132.528 50.0311 129.408 49.8333 126.244 49.8333C123.053 49.8333 119.908 50.0344 116.823 50.4245C116.81 50.2283 116.805 50.0311 116.805 49.8333C116.805 47.2917 117.795 44.8542 119.558 43.0569C121.321 41.2597 123.713 40.25 126.206 40.25C128.699 40.25 131.09 41.2597 132.853 43.0569C134.616 44.8542 135.607 47.2917 135.607 49.8333ZM116.805 203.166C116.805 205.708 117.795 208.146 119.558 209.944C121.321 211.74 123.713 212.75 126.206 212.75C128.699 212.75 131.09 211.74 132.853 209.944C134.616 208.146 135.607 205.708 135.607 203.166H116.805ZM179.372 184C187.403 184 191.736 174.396 186.509 168.18C183.969 165.159 182.616 161.317 182.704 157.372L183.133 137.893C183.851 105.355 158.171 69 126.244 69C94.3231 69 68.6469 105.343 69.3534 137.873L69.777 157.376C69.8627 161.319 68.5095 165.161 65.9704 168.18C60.7433 174.396 65.0763 184 73.1083 184H179.372ZM178.996 33.7547C182.313 28.9699 188.881 27.7799 193.666 31.0967C205.765 39.4834 220.274 59.5971 228.197 83.412C230.034 88.9363 227.045 94.9044 221.522 96.7422C215.997 98.5799 210.029 95.5913 208.191 90.067C201.232 69.148 188.929 53.4662 181.655 48.424C176.87 45.1072 175.68 38.5395 178.996 33.7547ZM57.2444 31.0967C62.0293 27.7799 68.5969 28.9699 71.9137 33.7547C75.2305 38.5395 74.0404 45.1072 69.2557 48.424C61.9817 53.4662 49.6782 69.148 42.7193 90.067C40.8815 95.5913 34.9134 98.5799 29.389 96.7422C23.8646 94.9044 20.8761 88.9363 22.7138 83.412C30.6361 59.5971 45.1457 39.4834 57.2444 31.0967Z" fill="url(#paint0_linear_1037_558)"/>
<defs>
<linearGradient id="paint0_linear_1037_558" x1="244.5" y1="33" x2="50" y2="127" gradientUnits="userSpaceOnUse">
<stop offset="0.183" stop-color="#646B85"/>
<stop offset="0.703" stop-color="#58A79E"/>
<stop offset="1" stop-color="#434C6D"/>
</linearGradient>
</defs>
</svg>
