<svg width="200" height="200" viewBox="0 0 200 200" fill="none" xmlns="http://www.w3.org/2000/svg">
<g clip-path="url(#clip0_1037_514)">
<path d="M99.9692 99.9655C77.1008 122.834 40.0196 122.834 17.1542 99.9655C-5.71743 77.097 -5.71743 40.0222 17.1542 17.1537" fill="url(#paint0_linear_1037_514)"/>
<path d="M17.1537 99.9655C-5.71792 77.097 -5.71792 40.0222 17.1537 17.1537V99.9655Z" fill="url(#paint1_linear_1037_514)"/>
<path d="M100.031 100.028C122.903 77.1597 159.981 77.1657 182.85 100.035C205.715 122.897 205.718 159.978 182.85 182.846" fill="url(#paint2_linear_1037_514)"/>
<path d="M182.85 100.035C205.715 122.897 205.719 159.978 182.85 182.846V100.035Z" fill="url(#paint3_linear_1037_514)"/>
</g>
<defs>
<linearGradient id="paint0_linear_1037_514" x1="-58.7669" y1="67.141" x2="130.094" y2="67.141" gradientUnits="userSpaceOnUse">
<stop offset="0.012" stop-color="#E0B386"/>
<stop offset="0.65" stop-color="#DA498C"/>
<stop offset="1" stop-color="#961484"/>
</linearGradient>
<linearGradient id="paint1_linear_1037_514" x1="-9.83364" y1="25.1976" x2="73.9684" y2="129.694" gradientUnits="userSpaceOnUse">
<stop offset="0.012" stop-color="#E0B386"/>
<stop offset="0.65" stop-color="#DA498C"/>
<stop offset="1" stop-color="#961484"/>
</linearGradient>
<linearGradient id="paint2_linear_1037_514" x1="247.562" y1="136.904" x2="-0.882723" y2="125.07" gradientUnits="userSpaceOnUse">
<stop stop-color="#29D3DA"/>
<stop offset="0.519" stop-color="#0077FF"/>
<stop offset="0.999" stop-color="#064093"/>
<stop offset="1" stop-color="#084698"/>
</linearGradient>
<linearGradient id="paint3_linear_1037_514" x1="208.906" y1="142.682" x2="162.157" y2="140.464" gradientUnits="userSpaceOnUse">
<stop stop-color="#29D3DA"/>
<stop offset="0.519" stop-color="#0077FF"/>
<stop offset="0.999" stop-color="#064093"/>
<stop offset="1" stop-color="#084698"/>
</linearGradient>
<clipPath id="clip0_1037_514">
<rect width="200" height="200" fill="white"/>
</clipPath>
</defs>
</svg>
